# xmcd
#
# Track frame offsets: 
#        150
#        15022
#        31165
#        48477
#        62910
#        80222
#        104022
#        120857
#        140512
#        147050
#
# Disc length: 2161 seconds
#
# Revision: 0
# Processed by: cddbd v1.5.2PL0 Copyright (c) Steve Scherf et al.
# Submitted via: ExactAudioCopy v1.1
#
DISCID=7f086f0a
DTITLE=Jeff Beck - You Had it Coming
DYEAR=2001
DGENRE=Blues Rock
TTITLE0=Earthquake
TTITLE1=Roy's Toy
TTITLE2=Dirty Mind
TTITLE3=Rollin' and tumblin'
TTITLE4=Nadia
TTITLE5=Loose cannon
TTITLE6=Rosebud
TTITLE7=Left Hook
TTITLE8=Blackbird
TTITLE9=Suspension
EXTD=
EXTT0=
EXTT1=
EXTT2=
EXTT3=
EXTT4=
EXTT5=
EXTT6=
EXTT7=
EXTT8=
EXTT9=
PLAYORDER=
